<svg id="Layer_1" data-name="Layer 1" xmlns="http://www.w3.org/2000/svg" xmlns:xlink="http://www.w3.org/1999/xlink" viewBox="0 0 512 512"><defs><radialGradient id="GradientFill_1" cx="279.14" cy="229.87" r="285.79" gradientUnits="userSpaceOnUse"><stop offset="0" stop-color="#fff"/><stop offset="0.51" stop-color="#fbfbfb"/><stop offset="1" stop-color="#d0d2d3"/></radialGradient></defs><title>camera</title><path d="M282.94,99.87l-265,106c-14.73,5.89-21.79,22.37-15.9,36.51L94.52,454.92c5.89,14.14,22.38,21.79,36.51,15.9L364.79,377.2C392.46,396,416,407.82,452.52,405.47c-25.33-10-39.45-21.2-57.7-40l1.17-.59a28.42,28.42,0,0,0,15.9-37.1l-92.45-212C313.56,101.63,297.07,94,282.94,99.87Z" fill="#231f20" fill-rule="evenodd"/><path d="M283.53,107.52,28,201.73c-14.13,5.3-21.79,21.2-15.9,34.74L94.52,442c5.89,13.55,21.2,21.2,34.74,15.9l226.11-83c25.91,18.25,47.69,30,83,28.85-24.15-10-37.11-21.2-54.18-40h1.18c14.14-5.3,21.79-21.2,15.89-35.33L318.86,123.42C313,109.29,297.66,102.22,283.53,107.52Z" fill="#839ca9" fill-rule="evenodd"/><path d="M389.52,39.8,71,99.28C53.89,102.81,41.52,119.88,45.65,137l55.94,257.31c4.12,17.08,20,28.85,37.69,25.91l280.87-53c26.5,27.08,50.63,45.34,91.86,50.64-25.91-16.49-39.45-32.39-55.35-57.12l1.17-.59a31.84,31.84,0,0,0,25.91-37.68L427.2,65.71C423.67,48,407.19,36.27,389.52,39.8Z" fill="#231f20" fill-rule="evenodd"/><path d="M389.52,48,83.34,96.92c-17.08,2.94-28.86,18.84-25.91,35.91l47.1,246.73c3.53,17.08,18.84,28.26,35.92,25.91L410.12,361.9c24.73,27.08,47.1,44.75,86.56,51.23C472,396,459.59,380.74,445.46,356.59H446c17.08-2.95,28.85-18.85,25.91-35.33L424.85,74C421.31,56.88,406,45.69,389.52,48Z" fill-rule="evenodd" fill="url(#GradientFill_1)"/><path d="M325.93,271.8c-3.54.59-6.49.59-9.42,1.17v27.68L396,286.52a14.4,14.4,0,0,0,11.78-17.08L386,143.44c-1.77-7.65-9.42-13.54-17.67-11.78l-51.82,8.83v25.32A53.51,53.51,0,0,1,368.92,210c5.29,28.85-14.14,56.53-43,61.83Zm-9.42-18.25V232.94H320c7.65-1.18,13-8.83,11.77-16.48a14.65,14.65,0,0,0-15.3-12.37V184.66a34.67,34.67,0,0,1,34.15,28.85,35.07,35.07,0,0,1-28.26,40Zm0,19.43c-25.32,0-48.29-18.25-52.41-44.16-5.3-29.44,14.14-57.12,43-61.83a51.62,51.62,0,0,1,9.42-1.18V140.5l-95.39,17.08c-8.24,1.17-15.31,0-15.9-3.53s-7.66-5.3-15.9-3.53H187V187l8.83-1.17c7.65-1.77,15.3,2.36,16.48,8.83s-4.71,13-12.36,14.13l-13,2.36V323.62l129.54-23V273Zm0-88.32v19.43a2.07,2.07,0,0,0-1.18.59,13.71,13.71,0,0,0-11.77,16.49,14.37,14.37,0,0,0,13,11.78v20.61c-16.49,0-31.21-11.78-34.15-28.26a35.06,35.06,0,0,1,28.26-40C312.39,185.24,314.74,184.66,316.51,184.66ZM187,150.5V187l-12.37,2.36c-8.24,1.18-13.54,7.65-13,14.13,1.17,6.48,8.83,10.6,17.08,8.83l8.24-1.18V323.62l-17.67,2.95c-8.24,1.76-15.9-3.53-17.67-11.78l-21.79-126a14,14,0,0,1,11.77-17.08c7.66-1.76,13.54-5.3,13-8.83s5.89-7.65,13.54-8.83Z" fill="#231f20" fill-rule="evenodd"/></svg>